# Wavefront OBJ file automatically generated by Tiled2Unity

# Vertices (Count = 99)
v 0 -1 0
v -1 -1 0
v -1 0 0
v 0 0 0
v -2 -1 0
v -2 0 0
v -3 -1 0
v -3 0 0
v -4 -1 0
v -4 0 0
v -5 -1 0
v -5 0 0
v -6 -1 0
v -6 0 0
v -7 -1 0
v -7 0 0
v -8 -1 0
v -8 0 0
v -9 -1 0
v -9 0 0
v -10 -1 0
v -10 0 0
v 0 -2 0
v -1 -2 0
v -2 -2 0
v -3 -2 0
v -4 -2 0
v -5 -2 0
v -6 -2 0
v -7 -2 0
v -8 -2 0
v -9 -2 0
v -10 -2 0
v 0 -3 0
v -1 -3 0
v -2 -3 0
v -3 -3 0
v -4 -3 0
v -5 -3 0
v -6 -3 0
v -7 -3 0
v -8 -3 0
v -9 -3 0
v -10 -3 0
v 0 -4 0
v -1 -4 0
v -2 -4 0
v -3 -4 0
v -4 -4 0
v -5 -4 0
v -6 -4 0
v -7 -4 0
v -8 -4 0
v -9 -4 0
v -10 -4 0
v -1 -5 0
v -2 -5 0
v -3 -5 0
v -4 -5 0
v -5 -5 0
v -6 -5 0
v -7 -5 0
v -8 -5 0
v -9 -5 0
v -10 -5 0
v 0 -6 0
v -1 -6 0
v 0 -5 0
v -2 -6 0
v -3 -6 0
v -4 -6 0
v -5 -6 0
v -6 -6 0
v -7 -6 0
v -8 -6 0
v -9 -6 0
v -10 -6 0
v 0 -7 0
v -1 -7 0
v -2 -7 0
v -3 -7 0
v -4 -7 0
v -5 -7 0
v -6 -7 0
v -7 -7 0
v -8 -7 0
v -9 -7 0
v -10 -7 0
v 0 -8 0
v -1 -8 0
v -2 -8 0
v -3 -8 0
v -4 -8 0
v -5 -8 0
v -6 -8 0
v -7 -8 0
v -8 -8 0
v -9 -8 0
v -10 -8 0

# Texture cooridinates (Count = 107)
vt 0.1876221 0.6876221
vt 0.2498779 0.6876221
vt 0.2498779 0.7498779
vt 0.1876221 0.7498779
vt 0.06262207 0.8751221
vt 0.1248779 0.8751221
vt 0.1248779 0.9373779
vt 0.06262207 0.9373779
vt 0.1876221 0.8751221
vt 0.2498779 0.8751221
vt 0.2498779 0.9373779
vt 0.1876221 0.9373779
vt 0.1251221 0.9376221
vt 0.1873779 0.9376221
vt 0.1873779 0.9998779
vt 0.1251221 0.9998779
vt 0.0001220703 0.9376221
vt 0.06237793 0.9376221
vt 0.06237793 0.9998779
vt 0.0001220703 0.9998779
vt 0.0001220703 0.8751221
vt 0.06237793 0.8751221
vt 0.06237793 0.9373779
vt 0.0001220703 0.9373779
vt 0.1251221 0.8126221
vt 0.1873779 0.8126221
vt 0.1873779 0.8748779
vt 0.1251221 0.8748779
vt 0.1876221 0.5626221
vt 0.2498779 0.5626221
vt 0.2498779 0.6248779
vt 0.1876221 0.6248779
vt 0.06262207 0.5626221
vt 0.1248779 0.5626221
vt 0.1248779 0.6248779
vt 0.06262207 0.6248779
vt 0.1251221 0.5626221
vt 0.1873779 0.5626221
vt 0.1873779 0.6248779
vt 0.1251221 0.6248779
vt 0.0001220703 0.7501221
vt 0.2498779 0.7501221
vt 0.2498779 0.9998779
vt 0.4376221 0.8751221
vt 0.4998779 0.8751221
vt 0.4998779 0.9373779
vt 0.4376221 0.9373779
vt 0.3751221 0.8751221
vt 0.4373779 0.8751221
vt 0.4373779 0.9373779
vt 0.3751221 0.9373779
vt 0.06262207 0.9376221
vt 0.1248779 0.9376221
vt 0.1248779 0.9998779
vt 0.06262207 0.9998779
vt 0.4376221 0.5626221
vt 0.4998779 0.5626221
vt 0.4998779 0.6248779
vt 0.4376221 0.6248779
vt 0.5001221 0.6876221
vt 0.5623779 0.6876221
vt 0.5623779 0.7498779
vt 0.5001221 0.7498779
vt 0.6251221 0.6876221
vt 0.6873779 0.6876221
vt 0.6873779 0.7498779
vt 0.6251221 0.7498779
vt 0.6876221 0.5626221
vt 0.7498779 0.5626221
vt 0.7498779 0.6248779
vt 0.6876221 0.6248779
vt 0.5001221 0.6251221
vt 0.5623779 0.6251221
vt 0.5623779 0.6873779
vt 0.5001221 0.6873779
vt 0.5626221 0.6251221
vt 0.6248779 0.6251221
vt 0.6248779 0.6873779
vt 0.5626221 0.6873779
vt 0.5626221 0.6876221
vt 0.6248779 0.6876221
vt 0.6248779 0.7498779
vt 0.5626221 0.7498779
vt 0.6251221 0.6251221
vt 0.6873779 0.6251221
vt 0.6873779 0.6873779
vt 0.6251221 0.6873779
vt 0.5001221 0.5626221
vt 0.5623779 0.5626221
vt 0.5623779 0.6248779
vt 0.5001221 0.6248779
vt 0.5626221 0.5626221
vt 0.6248779 0.5626221
vt 0.6248779 0.6248779
vt 0.5626221 0.6248779
vt 0.6251221 0.5626221
vt 0.6873779 0.5626221
vt 0.6873779 0.6248779
vt 0.6251221 0.6248779
vt 0.4376221 0.9376221
vt 0.4998779 0.9376221
vt 0.4998779 0.9998779
vt 0.4376221 0.9998779
vt 0.0001220703 0.0001220703
vt 0.06237793 0.0001220703
vt 0.06237793 0.06237793
vt 0.0001220703 0.06237793

# Normal
vn 0 0 -1

# Groups (Count = 4)

g mesh_0001
f 1/1/1 2/2/1 3/3/1 4/4/1
f 2/1/1 5/2/1 6/3/1 3/4/1
f 5/1/1 7/2/1 8/3/1 6/4/1
f 7/1/1 9/2/1 10/3/1 8/4/1
f 9/5/1 11/6/1 12/7/1 10/8/1
f 11/9/1 13/10/1 14/11/1 12/12/1
f 13/1/1 15/2/1 16/3/1 14/4/1
f 15/1/1 17/2/1 18/3/1 16/4/1
f 17/1/1 19/2/1 20/3/1 18/4/1
f 19/1/1 21/2/1 22/3/1 20/4/1
f 23/13/1 24/14/1 2/15/1 1/16/1
f 24/13/1 25/14/1 5/15/1 2/16/1
f 25/13/1 26/14/1 7/15/1 5/16/1
f 26/13/1 27/14/1 9/15/1 7/16/1
f 27/17/1 28/18/1 11/19/1 9/20/1
f 28/17/1 29/18/1 13/19/1 11/20/1
f 29/13/1 30/14/1 15/15/1 13/16/1
f 30/13/1 31/14/1 17/15/1 15/16/1
f 31/13/1 32/14/1 19/15/1 17/16/1
f 32/13/1 33/14/1 21/15/1 19/16/1
f 34/21/1 35/22/1 24/23/1 23/24/1
f 35/21/1 36/22/1 25/23/1 24/24/1
f 36/21/1 37/22/1 26/23/1 25/24/1
f 37/21/1 38/22/1 27/23/1 26/24/1
f 38/21/1 39/22/1 28/23/1 27/24/1
f 39/21/1 40/22/1 29/23/1 28/24/1
f 40/21/1 41/22/1 30/23/1 29/24/1
f 41/21/1 42/22/1 31/23/1 30/24/1
f 42/21/1 43/22/1 32/23/1 31/24/1
f 43/21/1 44/22/1 33/23/1 32/24/1
f 45/17/1 46/18/1 35/19/1 34/20/1
f 46/9/1 47/10/1 36/11/1 35/12/1
f 47/1/1 48/2/1 37/3/1 36/4/1
f 48/1/1 49/2/1 38/3/1 37/4/1
f 49/25/1 50/26/1 39/27/1 38/28/1
f 50/21/1 51/22/1 40/23/1 39/24/1
f 51/25/1 52/26/1 41/27/1 40/28/1
f 52/1/1 53/2/1 42/3/1 41/4/1
f 53/1/1 54/2/1 43/3/1 42/4/1
f 54/5/1 55/6/1 44/7/1 43/8/1
f 56/17/1 57/18/1 47/19/1 46/20/1
f 57/29/1 58/30/1 48/31/1 47/32/1
f 58/1/1 59/2/1 49/3/1 48/4/1
f 59/1/1 60/2/1 50/3/1 49/4/1
f 60/33/1 61/34/1 51/35/1 50/36/1
f 61/1/1 62/2/1 52/3/1 51/4/1
f 62/1/1 63/2/1 53/3/1 52/4/1
f 63/37/1 64/38/1 54/39/1 53/40/1
f 64/17/1 65/18/1 55/19/1 54/20/1
f 66/17/1 67/18/1 56/19/1 68/20/1
f 67/17/1 69/18/1 57/19/1 56/20/1
f 69/9/1 70/10/1 58/11/1 57/12/1
f 70/1/1 71/2/1 59/3/1 58/4/1
f 71/1/1 72/2/1 60/3/1 59/4/1
f 72/1/1 73/2/1 61/3/1 60/4/1
f 73/1/1 74/2/1 62/3/1 61/4/1
f 74/1/1 75/2/1 63/3/1 62/4/1
f 75/5/1 76/6/1 64/7/1 63/8/1
f 76/17/1 77/18/1 65/19/1 64/20/1
f 78/25/1 79/26/1 67/27/1 66/28/1
f 79/17/1 80/18/1 69/19/1 67/20/1
f 80/17/1 81/18/1 70/19/1 69/20/1
f 81/13/1 82/14/1 71/15/1 70/16/1
f 82/29/1 83/30/1 72/31/1 71/32/1
f 83/1/1 84/2/1 73/3/1 72/4/1
f 84/37/1 85/38/1 74/39/1 73/40/1
f 85/13/1 86/14/1 75/15/1 74/16/1
f 86/17/1 87/18/1 76/19/1 75/20/1
f 87/17/1 88/18/1 77/19/1 76/20/1
f 89/1/1 90/2/1 79/3/1 78/4/1
f 90/5/1 91/6/1 80/7/1 79/8/1
f 91/17/1 92/18/1 81/19/1 80/20/1
f 92/17/1 93/18/1 82/19/1 81/20/1
f 93/17/1 94/18/1 83/19/1 82/20/1
f 94/13/1 95/14/1 84/15/1 83/16/1
f 95/17/1 96/18/1 85/19/1 84/20/1
f 96/17/1 97/18/1 86/19/1 85/20/1
f 97/17/1 98/18/1 87/19/1 86/20/1
f 98/17/1 99/18/1 88/19/1 87/20/1

g mesh_0002
f 68/41/1 56/42/1 46/43/1 45/20/1

g mesh_0003
f 1/44/1 2/45/1 3/46/1 4/47/1
f 2/48/1 5/49/1 6/50/1 3/51/1
f 5/44/1 7/45/1 8/46/1 6/47/1
f 7/52/1 9/53/1 10/54/1 8/55/1
f 13/52/1 15/53/1 16/54/1 14/55/1
f 15/48/1 17/49/1 18/50/1 16/51/1
f 17/44/1 19/45/1 20/46/1 18/47/1
f 19/48/1 21/49/1 22/50/1 20/51/1
f 47/56/1 48/57/1 37/58/1 36/59/1
f 48/60/1 49/61/1 38/62/1 37/63/1
f 52/64/1 53/65/1 42/66/1 41/67/1
f 53/68/1 54/69/1 43/70/1 42/71/1
f 58/72/1 59/73/1 49/74/1 48/75/1
f 59/76/1 60/77/1 50/78/1 49/79/1
f 60/80/1 61/81/1 51/82/1 50/83/1
f 61/76/1 62/77/1 52/78/1 51/79/1
f 62/84/1 63/85/1 53/86/1 52/87/1
f 70/88/1 71/89/1 59/90/1 58/91/1
f 71/92/1 72/93/1 60/94/1 59/95/1
f 72/92/1 73/93/1 61/94/1 60/95/1
f 73/92/1 74/93/1 62/94/1 61/95/1
f 74/96/1 75/97/1 63/98/1 62/99/1
f 89/100/1 90/101/1 79/102/1 78/103/1

g mesh_0004
f 1/104/1 2/105/1 3/106/1 4/107/1
f 2/104/1 5/105/1 6/106/1 3/107/1
f 5/104/1 7/105/1 8/106/1 6/107/1
f 7/104/1 9/105/1 10/106/1 8/107/1
f 13/104/1 15/105/1 16/106/1 14/107/1
f 15/104/1 17/105/1 18/106/1 16/107/1
f 17/104/1 19/105/1 20/106/1 18/107/1
f 19/104/1 21/105/1 22/106/1 20/107/1
f 47/104/1 48/105/1 37/106/1 36/107/1
f 48/104/1 49/105/1 38/106/1 37/107/1
f 52/104/1 53/105/1 42/106/1 41/107/1
f 53/104/1 54/105/1 43/106/1 42/107/1
f 58/104/1 59/105/1 49/106/1 48/107/1
f 59/104/1 60/105/1 50/106/1 49/107/1
f 61/104/1 62/105/1 52/106/1 51/107/1
f 62/104/1 63/105/1 53/106/1 52/107/1
f 70/104/1 71/105/1 59/106/1 58/107/1
f 71/104/1 72/105/1 60/106/1 59/107/1
f 72/104/1 73/105/1 61/106/1 60/107/1
f 73/104/1 74/105/1 62/106/1 61/107/1
f 74/104/1 75/105/1 63/106/1 62/107/1
f 89/104/1 90/105/1 79/106/1 78/107/1

